<svg width="599" height="82" viewBox="0 0 599 82" fill="none" xmlns="http://www.w3.org/2000/svg">
<path d="M599 72.5L583 82V63L599 72.5Z" fill="#BA391C"/>
<path d="M4.04545 15.4545H16.1818L29 46.7273H29.5455L42.3636 15.4545H54.5V62H44.9545V31.7045H44.5682L32.5227 61.7727H26.0227L13.9773 31.5909H13.5909V62H4.04545V15.4545ZM68.4034 75.0909C67.1761 75.0909 66.0246 74.9924 64.9489 74.7955C63.8883 74.6136 63.0095 74.3788 62.3125 74.0909L64.4943 66.8636C65.6307 67.2121 66.6534 67.4015 67.5625 67.4318C68.4867 67.4621 69.2822 67.25 69.9489 66.7955C70.6307 66.3409 71.1837 65.5682 71.608 64.4773L72.1761 63L59.6534 27.0909H69.8352L77.0625 52.7273H77.4261L84.7216 27.0909H94.9716L81.4034 65.7727C80.7519 67.6515 79.8655 69.2879 78.7443 70.6818C77.6383 72.0909 76.2367 73.1742 74.5398 73.9318C72.8428 74.7045 70.7973 75.0909 68.4034 75.0909Z" fill="white"/>
<path d="M96.1477 23.5682V15.4545H134.375V23.5682H120.125V62H110.398V23.5682H96.1477ZM140.489 62V27.0909H150.17V62H140.489ZM145.352 22.5909C143.913 22.5909 142.678 22.1136 141.648 21.1591C140.633 20.1894 140.125 19.0303 140.125 17.6818C140.125 16.3485 140.633 15.2045 141.648 14.25C142.678 13.2803 143.913 12.7955 145.352 12.7955C146.792 12.7955 148.019 13.2803 149.034 14.25C150.064 15.2045 150.58 16.3485 150.58 17.6818C150.58 19.0303 150.064 20.1894 149.034 21.1591C148.019 22.1136 146.792 22.5909 145.352 22.5909ZM157.926 62V27.0909H167.153V33.25H167.562C168.29 31.2045 169.502 29.5909 171.199 28.4091C172.896 27.2273 174.926 26.6364 177.29 26.6364C179.684 26.6364 181.722 27.2348 183.403 28.4318C185.085 29.6136 186.206 31.2197 186.767 33.25H187.131C187.843 31.25 189.131 29.6515 190.994 28.4545C192.873 27.2424 195.093 26.6364 197.653 26.6364C200.911 26.6364 203.555 27.6742 205.585 29.75C207.631 31.8106 208.653 34.7348 208.653 38.5227V62H198.994V40.4318C198.994 38.4924 198.479 37.0379 197.449 36.0682C196.419 35.0985 195.131 34.6136 193.585 34.6136C191.828 34.6136 190.456 35.1742 189.472 36.2955C188.487 37.4015 187.994 38.8636 187.994 40.6818V62H178.608V40.2273C178.608 38.5152 178.116 37.1515 177.131 36.1364C176.161 35.1212 174.881 34.6136 173.29 34.6136C172.214 34.6136 171.244 34.8864 170.381 35.4318C169.532 35.9621 168.858 36.7121 168.358 37.6818C167.858 38.6364 167.608 39.7576 167.608 41.0455V62H157.926ZM232.21 62.6818C228.619 62.6818 225.528 61.9545 222.938 60.5C220.362 59.0303 218.377 56.9545 216.983 54.2727C215.589 51.5758 214.892 48.3864 214.892 44.7045C214.892 41.1136 215.589 37.9621 216.983 35.25C218.377 32.5379 220.339 30.4242 222.869 28.9091C225.415 27.3939 228.4 26.6364 231.824 26.6364C234.127 26.6364 236.271 27.0076 238.256 27.75C240.256 28.4773 241.998 29.5758 243.483 31.0455C244.983 32.5152 246.15 34.3636 246.983 36.5909C247.816 38.803 248.233 41.3939 248.233 44.3636V47.0227H218.756V41.0227H239.119C239.119 39.6288 238.816 38.3939 238.21 37.3182C237.604 36.2424 236.763 35.4015 235.688 34.7955C234.627 34.1742 233.392 33.8636 231.983 33.8636C230.513 33.8636 229.21 34.2045 228.074 34.8864C226.953 35.553 226.074 36.4545 225.438 37.5909C224.801 38.7121 224.475 39.9621 224.46 41.3409V47.0455C224.46 48.7727 224.778 50.2652 225.415 51.5227C226.066 52.7803 226.983 53.75 228.165 54.4318C229.347 55.1136 230.748 55.4545 232.369 55.4545C233.445 55.4545 234.43 55.303 235.324 55C236.218 54.697 236.983 54.2424 237.619 53.6364C238.256 53.0303 238.741 52.2879 239.074 51.4091L248.028 52C247.574 54.1515 246.642 56.0303 245.233 57.6364C243.839 59.2273 242.036 60.4697 239.824 61.3636C237.627 62.2424 235.089 62.6818 232.21 62.6818Z" fill="#BA391C"/>
<path d="M255 77V11.0001L263.877 11V67.76L583 67.76V72.38V77H255Z" fill="white"/>
<path d="M255 77V11.0001L263.877 11V67.76L583 67.76V72.38V77H255Z" fill="#BA391C"/>
<path d="M272.864 62V27.0909H282.545V62H272.864ZM277.727 22.5909C276.288 22.5909 275.053 22.1136 274.023 21.1591C273.008 20.1894 272.5 19.0303 272.5 17.6818C272.5 16.3485 273.008 15.2045 274.023 14.25C275.053 13.2803 276.288 12.7955 277.727 12.7955C279.167 12.7955 280.394 13.2803 281.409 14.25C282.439 15.2045 282.955 16.3485 282.955 17.6818C282.955 19.0303 282.439 20.1894 281.409 21.1591C280.394 22.1136 279.167 22.5909 277.727 22.5909ZM299.983 41.8182V62H290.301V27.0909H299.528V33.25H299.938C300.71 31.2197 302.006 29.6136 303.824 28.4318C305.642 27.2348 307.847 26.6364 310.438 26.6364C312.862 26.6364 314.975 27.1667 316.778 28.2273C318.581 29.2879 319.983 30.803 320.983 32.7727C321.983 34.7273 322.483 37.0606 322.483 39.7727V62H312.801V41.5C312.816 39.3636 312.271 37.697 311.165 36.5C310.059 35.2879 308.536 34.6818 306.597 34.6818C305.294 34.6818 304.142 34.9621 303.142 35.5227C302.157 36.0833 301.384 36.9015 300.824 37.9773C300.278 39.0379 299.998 40.3182 299.983 41.8182ZM346.023 62.6818C342.432 62.6818 339.341 61.9545 336.75 60.5C334.174 59.0303 332.189 56.9545 330.795 54.2727C329.402 51.5758 328.705 48.3864 328.705 44.7045C328.705 41.1136 329.402 37.9621 330.795 35.25C332.189 32.5379 334.152 30.4242 336.682 28.9091C339.227 27.3939 342.212 26.6364 345.636 26.6364C347.939 26.6364 350.083 27.0076 352.068 27.75C354.068 28.4773 355.811 29.5758 357.295 31.0455C358.795 32.5152 359.962 34.3636 360.795 36.5909C361.629 38.803 362.045 41.3939 362.045 44.3636V47.0227H332.568V41.0227H352.932C352.932 39.6288 352.629 38.3939 352.023 37.3182C351.417 36.2424 350.576 35.4015 349.5 34.7955C348.439 34.1742 347.205 33.8636 345.795 33.8636C344.326 33.8636 343.023 34.2045 341.886 34.8864C340.765 35.553 339.886 36.4545 339.25 37.5909C338.614 38.7121 338.288 39.9621 338.273 41.3409V47.0455C338.273 48.7727 338.591 50.2652 339.227 51.5227C339.879 52.7803 340.795 53.75 341.977 54.4318C343.159 55.1136 344.561 55.4545 346.182 55.4545C347.258 55.4545 348.242 55.303 349.136 55C350.03 54.697 350.795 54.2424 351.432 53.6364C352.068 53.0303 352.553 52.2879 352.886 51.4091L361.841 52C361.386 54.1515 360.455 56.0303 359.045 57.6364C357.652 59.2273 355.848 60.4697 353.636 61.3636C351.439 62.2424 348.902 62.6818 346.023 62.6818Z" fill="white"/>
<path d="M272.864 62V27.0909H282.545V62H272.864ZM277.727 22.5909C276.288 22.5909 275.053 22.1136 274.023 21.1591C273.008 20.1894 272.5 19.0303 272.5 17.6818C272.5 16.3485 273.008 15.2045 274.023 14.25C275.053 13.2803 276.288 12.7955 277.727 12.7955C279.167 12.7955 280.394 13.2803 281.409 14.25C282.439 15.2045 282.955 16.3485 282.955 17.6818C282.955 19.0303 282.439 20.1894 281.409 21.1591C280.394 22.1136 279.167 22.5909 277.727 22.5909ZM299.983 41.8182V62H290.301V27.0909H299.528V33.25H299.938C300.71 31.2197 302.006 29.6136 303.824 28.4318C305.642 27.2348 307.847 26.6364 310.438 26.6364C312.862 26.6364 314.975 27.1667 316.778 28.2273C318.581 29.2879 319.983 30.803 320.983 32.7727C321.983 34.7273 322.483 37.0606 322.483 39.7727V62H312.801V41.5C312.816 39.3636 312.271 37.697 311.165 36.5C310.059 35.2879 308.536 34.6818 306.597 34.6818C305.294 34.6818 304.142 34.9621 303.142 35.5227C302.157 36.0833 301.384 36.9015 300.824 37.9773C300.278 39.0379 299.998 40.3182 299.983 41.8182ZM346.023 62.6818C342.432 62.6818 339.341 61.9545 336.75 60.5C334.174 59.0303 332.189 56.9545 330.795 54.2727C329.402 51.5758 328.705 48.3864 328.705 44.7045C328.705 41.1136 329.402 37.9621 330.795 35.25C332.189 32.5379 334.152 30.4242 336.682 28.9091C339.227 27.3939 342.212 26.6364 345.636 26.6364C347.939 26.6364 350.083 27.0076 352.068 27.75C354.068 28.4773 355.811 29.5758 357.295 31.0455C358.795 32.5152 359.962 34.3636 360.795 36.5909C361.629 38.803 362.045 41.3939 362.045 44.3636V47.0227H332.568V41.0227H352.932C352.932 39.6288 352.629 38.3939 352.023 37.3182C351.417 36.2424 350.576 35.4015 349.5 34.7955C348.439 34.1742 347.205 33.8636 345.795 33.8636C344.326 33.8636 343.023 34.2045 341.886 34.8864C340.765 35.553 339.886 36.4545 339.25 37.5909C338.614 38.7121 338.288 39.9621 338.273 41.3409V47.0455C338.273 48.7727 338.591 50.2652 339.227 51.5227C339.879 52.7803 340.795 53.75 341.977 54.4318C343.159 55.1136 344.561 55.4545 346.182 55.4545C347.258 55.4545 348.242 55.303 349.136 55C350.03 54.697 350.795 54.2424 351.432 53.6364C352.068 53.0303 352.553 52.2879 352.886 51.4091L361.841 52C361.386 54.1515 360.455 56.0303 359.045 57.6364C357.652 59.2273 355.848 60.4697 353.636 61.3636C351.439 62.2424 348.902 62.6818 346.023 62.6818Z" fill="#BA391C"/>
<path d="M411.318 38.7273C411.318 43.803 410.356 48.1212 408.432 51.6818C406.523 55.2424 403.917 57.9621 400.614 59.8409C397.326 61.7045 393.629 62.6364 389.523 62.6364C385.386 62.6364 381.674 61.697 378.386 59.8182C375.098 57.9394 372.5 55.2197 370.591 51.6591C368.682 48.0985 367.727 43.7879 367.727 38.7273C367.727 33.6515 368.682 29.3333 370.591 25.7727C372.5 22.2121 375.098 19.5 378.386 17.6364C381.674 15.7576 385.386 14.8182 389.523 14.8182C393.629 14.8182 397.326 15.7576 400.614 17.6364C403.917 19.5 406.523 22.2121 408.432 25.7727C410.356 29.3333 411.318 33.6515 411.318 38.7273ZM401.341 38.7273C401.341 35.4394 400.848 32.6667 399.864 30.4091C398.894 28.1515 397.523 26.4394 395.75 25.2727C393.977 24.1061 391.902 23.5227 389.523 23.5227C387.144 23.5227 385.068 24.1061 383.295 25.2727C381.523 26.4394 380.144 28.1515 379.159 30.4091C378.189 32.6667 377.705 35.4394 377.705 38.7273C377.705 42.0152 378.189 44.7879 379.159 47.0455C380.144 49.303 381.523 51.0152 383.295 52.1818C385.068 53.3485 387.144 53.9318 389.523 53.9318C391.902 53.9318 393.977 53.3485 395.75 52.1818C397.523 51.0152 398.894 49.303 399.864 47.0455C400.848 44.7879 401.341 42.0152 401.341 38.7273ZM428.108 41.8182V62H418.426V27.0909H427.653V33.25H428.062C428.835 31.2197 430.131 29.6136 431.949 28.4318C433.767 27.2348 435.972 26.6364 438.562 26.6364C440.987 26.6364 443.1 27.1667 444.903 28.2273C446.706 29.2879 448.108 30.803 449.108 32.7727C450.108 34.7273 450.608 37.0606 450.608 39.7727V62H440.926V41.5C440.941 39.3636 440.396 37.697 439.29 36.5C438.184 35.2879 436.661 34.6818 434.722 34.6818C433.419 34.6818 432.267 34.9621 431.267 35.5227C430.282 36.0833 429.509 36.9015 428.949 37.9773C428.403 39.0379 428.123 40.3182 428.108 41.8182ZM467.92 15.4545V62H458.239V15.4545H467.92ZM475.676 62V27.0909H485.358V62H475.676ZM480.54 22.5909C479.1 22.5909 477.866 22.1136 476.835 21.1591C475.82 20.1894 475.312 19.0303 475.312 17.6818C475.312 16.3485 475.82 15.2045 476.835 14.25C477.866 13.2803 479.1 12.7955 480.54 12.7955C481.979 12.7955 483.206 13.2803 484.222 14.25C485.252 15.2045 485.767 16.3485 485.767 17.6818C485.767 19.0303 485.252 20.1894 484.222 21.1591C483.206 22.1136 481.979 22.5909 480.54 22.5909ZM502.795 41.8182V62H493.114V27.0909H502.341V33.25H502.75C503.523 31.2197 504.818 29.6136 506.636 28.4318C508.455 27.2348 510.659 26.6364 513.25 26.6364C515.674 26.6364 517.788 27.1667 519.591 28.2273C521.394 29.2879 522.795 30.803 523.795 32.7727C524.795 34.7273 525.295 37.0606 525.295 39.7727V62H515.614V41.5C515.629 39.3636 515.083 37.697 513.977 36.5C512.871 35.2879 511.348 34.6818 509.409 34.6818C508.106 34.6818 506.955 34.9621 505.955 35.5227C504.97 36.0833 504.197 36.9015 503.636 37.9773C503.091 39.0379 502.811 40.3182 502.795 41.8182ZM548.835 62.6818C545.244 62.6818 542.153 61.9545 539.562 60.5C536.987 59.0303 535.002 56.9545 533.608 54.2727C532.214 51.5758 531.517 48.3864 531.517 44.7045C531.517 41.1136 532.214 37.9621 533.608 35.25C535.002 32.5379 536.964 30.4242 539.494 28.9091C542.04 27.3939 545.025 26.6364 548.449 26.6364C550.752 26.6364 552.896 27.0076 554.881 27.75C556.881 28.4773 558.623 29.5758 560.108 31.0455C561.608 32.5152 562.775 34.3636 563.608 36.5909C564.441 38.803 564.858 41.3939 564.858 44.3636V47.0227H535.381V41.0227H555.744C555.744 39.6288 555.441 38.3939 554.835 37.3182C554.229 36.2424 553.388 35.4015 552.312 34.7955C551.252 34.1742 550.017 33.8636 548.608 33.8636C547.138 33.8636 545.835 34.2045 544.699 34.8864C543.578 35.553 542.699 36.4545 542.062 37.5909C541.426 38.7121 541.1 39.9621 541.085 41.3409V47.0455C541.085 48.7727 541.403 50.2652 542.04 51.5227C542.691 52.7803 543.608 53.75 544.79 54.4318C545.972 55.1136 547.373 55.4545 548.994 55.4545C550.07 55.4545 551.055 55.303 551.949 55C552.843 54.697 553.608 54.2424 554.244 53.6364C554.881 53.0303 555.366 52.2879 555.699 51.4091L564.653 52C564.199 54.1515 563.267 56.0303 561.858 57.6364C560.464 59.2273 558.661 60.4697 556.449 61.3636C554.252 62.2424 551.714 62.6818 548.835 62.6818Z" fill="white"/>
</svg>
