<svg width="808" height="93" viewBox="0 0 808 93" fill="none" xmlns="http://www.w3.org/2000/svg">
<path d="M223 79.8726V7.00123L228.379 7V74.4615L488.358 74.0012V79.8726H223Z" fill="#BA391C"/>
<path d="M5.63636 15.4545H12.3636L28.1818 54.0909H28.7273L44.5455 15.4545H51.2727V62H46V26.6364H45.5455L31 62H25.9091L11.3636 26.6364H10.9091V62H5.63636V15.4545ZM61.4611 75.0909C60.552 75.0909 59.7414 75.0152 59.0293 74.8636C58.3172 74.7273 57.8248 74.5909 57.552 74.4545L58.9157 69.7273C60.2187 70.0606 61.3702 70.1818 62.3702 70.0909C63.3702 70 64.2566 69.553 65.0293 68.75C65.8172 67.9621 66.5369 66.6818 67.1884 64.9091L68.1884 62.1818L55.2793 27.0909H61.0975L70.7339 54.9091H71.0975L80.7339 27.0909H86.552L71.7339 67.0909C71.0672 68.8939 70.2414 70.3864 69.2566 71.5682C68.2717 72.7652 67.1278 73.6515 65.8248 74.2273C64.5369 74.803 63.0823 75.0909 61.4611 75.0909ZM353.884 38.7273C353.884 43.6364 352.998 47.8788 351.225 51.4545C349.452 55.0303 347.02 57.7879 343.93 59.7273C340.839 61.6667 337.308 62.6364 333.339 62.6364C329.369 62.6364 325.839 61.6667 322.748 59.7273C319.657 57.7879 317.225 55.0303 315.452 51.4545C313.68 47.8788 312.793 43.6364 312.793 38.7273C312.793 33.8182 313.68 29.5758 315.452 26C317.225 22.4242 319.657 19.6667 322.748 17.7273C325.839 15.7879 329.369 14.8182 333.339 14.8182C337.308 14.8182 340.839 15.7879 343.93 17.7273C347.02 19.6667 349.452 22.4242 351.225 26C352.998 29.5758 353.884 33.8182 353.884 38.7273ZM348.43 38.7273C348.43 34.697 347.755 31.2955 346.407 28.5227C345.073 25.75 343.263 23.6515 340.975 22.2273C338.702 20.803 336.157 20.0909 333.339 20.0909C330.52 20.0909 327.967 20.803 325.68 22.2273C323.407 23.6515 321.596 25.75 320.248 28.5227C318.914 31.2955 318.248 34.697 318.248 38.7273C318.248 42.7576 318.914 46.1591 320.248 48.9318C321.596 51.7045 323.407 53.803 325.68 55.2273C327.967 56.6515 330.52 57.3636 333.339 57.3636C336.157 57.3636 338.702 56.6515 340.975 55.2273C343.263 53.803 345.073 51.7045 346.407 48.9318C347.755 46.1591 348.43 42.7576 348.43 38.7273ZM364.158 41V62H358.794V27.0909H363.976V32.5455H364.43C365.249 30.7727 366.491 29.3485 368.158 28.2727C369.824 27.1818 371.976 26.6364 374.612 26.6364C376.976 26.6364 379.044 27.1212 380.817 28.0909C382.59 29.0455 383.968 30.5 384.953 32.4545C385.938 34.3939 386.43 36.8485 386.43 39.8182V62H381.067V40.1818C381.067 37.4394 380.355 35.303 378.93 33.7727C377.506 32.2273 375.552 31.4545 373.067 31.4545C371.355 31.4545 369.824 31.8258 368.476 32.5682C367.143 33.3106 366.09 34.3939 365.317 35.8182C364.544 37.2424 364.158 38.9697 364.158 41ZM397.755 15.4545V62H392.392V15.4545H397.755ZM403.739 62V27.0909H409.103V62H403.739ZM406.466 21.2727C405.421 21.2727 404.519 20.9167 403.762 20.2045C403.019 19.4924 402.648 18.6364 402.648 17.6364C402.648 16.6364 403.019 15.7803 403.762 15.0682C404.519 14.3561 405.421 14 406.466 14C407.512 14 408.406 14.3561 409.148 15.0682C409.906 15.7803 410.285 16.6364 410.285 17.6364C410.285 18.6364 409.906 19.4924 409.148 20.2045C408.406 20.9167 407.512 21.2727 406.466 21.2727ZM420.45 41V62H415.087V27.0909H420.268V32.5455H420.723C421.541 30.7727 422.784 29.3485 424.45 28.2727C426.117 27.1818 428.268 26.6364 430.905 26.6364C433.268 26.6364 435.337 27.1212 437.109 28.0909C438.882 29.0455 440.261 30.5 441.246 32.4545C442.231 34.3939 442.723 36.8485 442.723 39.8182V62H437.359V40.1818C437.359 37.4394 436.647 35.303 435.223 33.7727C433.799 32.2273 431.844 31.4545 429.359 31.4545C427.647 31.4545 426.117 31.8258 424.768 32.5682C423.435 33.3106 422.382 34.3939 421.609 35.8182C420.837 37.2424 420.45 38.9697 420.45 41ZM463.32 62.7273C459.957 62.7273 457.055 61.9848 454.616 60.5C452.192 59 450.32 56.9091 449.002 54.2273C447.699 51.5303 447.048 48.3939 447.048 44.8182C447.048 41.2424 447.699 38.0909 449.002 35.3636C450.32 32.6212 452.154 30.4848 454.502 28.9545C456.866 27.4091 459.623 26.6364 462.775 26.6364C464.593 26.6364 466.389 26.9394 468.161 27.5455C469.934 28.1515 471.548 29.1364 473.002 30.5C474.457 31.8485 475.616 33.6364 476.48 35.8636C477.343 38.0909 477.775 40.8333 477.775 44.0909V46.3636H450.866V41.7273H472.32C472.32 39.7576 471.927 38 471.139 36.4545C470.366 34.9091 469.26 33.6894 467.82 32.7955C466.396 31.9015 464.714 31.4545 462.775 31.4545C460.639 31.4545 458.79 31.9848 457.23 33.0455C455.684 34.0909 454.495 35.4545 453.661 37.1364C452.828 38.8182 452.411 40.6212 452.411 42.5455V45.6364C452.411 48.2727 452.866 50.5076 453.775 52.3409C454.699 54.1591 455.98 55.5455 457.616 56.5C459.252 57.4394 461.154 57.9091 463.32 57.9091C464.73 57.9091 466.002 57.7121 467.139 57.3182C468.29 56.9091 469.283 56.303 470.116 55.5C470.949 54.6818 471.593 53.6667 472.048 52.4545L477.23 53.9091C476.684 55.6667 475.767 57.2121 474.48 58.5455C473.192 59.8636 471.601 60.8939 469.707 61.6364C467.813 62.3636 465.684 62.7273 463.32 62.7273Z" fill="#E2E2E2"/>
<path d="M85.7859 20.4545V15.4545H120.695V20.4545H106.059V62H100.422V20.4545H85.7859ZM124.827 62V27.0909H130.19V62H124.827ZM127.554 21.2727C126.508 21.2727 125.607 20.9167 124.849 20.2045C124.107 19.4924 123.736 18.6364 123.736 17.6364C123.736 16.6364 124.107 15.7803 124.849 15.0682C125.607 14.3561 126.508 14 127.554 14C128.599 14 129.493 14.3561 130.236 15.0682C130.993 15.7803 131.372 16.6364 131.372 17.6364C131.372 18.6364 130.993 19.4924 130.236 20.2045C129.493 20.9167 128.599 21.2727 127.554 21.2727ZM136.174 62V27.0909H141.356V32.5455H141.81C142.538 30.6818 143.712 29.2348 145.333 28.2045C146.954 27.1591 148.901 26.6364 151.174 26.6364C153.477 26.6364 155.394 27.1591 156.924 28.2045C158.47 29.2348 159.674 30.6818 160.538 32.5455H160.901C161.795 30.7424 163.136 29.3106 164.924 28.25C166.712 27.1742 168.856 26.6364 171.356 26.6364C174.477 26.6364 177.03 27.6136 179.015 29.5682C181 31.5076 181.992 34.5303 181.992 38.6364V62H176.629V38.6364C176.629 36.0606 175.924 34.2197 174.515 33.1136C173.106 32.0076 171.447 31.4545 169.538 31.4545C167.083 31.4545 165.182 32.197 163.833 33.6818C162.485 35.1515 161.81 37.0152 161.81 39.2727V62H156.356V38.0909C156.356 36.1061 155.712 34.5076 154.424 33.2955C153.136 32.0682 151.477 31.4545 149.447 31.4545C148.053 31.4545 146.75 31.8258 145.538 32.5682C144.341 33.3106 143.371 34.3409 142.629 35.6591C141.901 36.9621 141.538 38.4697 141.538 40.1818V62H136.174ZM202.595 62.7273C199.232 62.7273 196.33 61.9848 193.891 60.5C191.467 59 189.595 56.9091 188.277 54.2273C186.974 51.5303 186.323 48.3939 186.323 44.8182C186.323 41.2424 186.974 38.0909 188.277 35.3636C189.595 32.6212 191.429 30.4848 193.777 28.9545C196.141 27.4091 198.898 26.6364 202.05 26.6364C203.868 26.6364 205.664 26.9394 207.436 27.5455C209.209 28.1515 210.823 29.1364 212.277 30.5C213.732 31.8485 214.891 33.6364 215.755 35.8636C216.618 38.0909 217.05 40.8333 217.05 44.0909V46.3636H190.141V41.7273H211.595C211.595 39.7576 211.202 38 210.414 36.4545C209.641 34.9091 208.535 33.6894 207.095 32.7955C205.671 31.9015 203.989 31.4545 202.05 31.4545C199.914 31.4545 198.065 31.9848 196.505 33.0455C194.959 34.0909 193.77 35.4545 192.936 37.1364C192.103 38.8182 191.686 40.6212 191.686 42.5455V45.6364C191.686 48.2727 192.141 50.5076 193.05 52.3409C193.974 54.1591 195.255 55.5455 196.891 56.5C198.527 57.4394 200.429 57.9091 202.595 57.9091C204.005 57.9091 205.277 57.7121 206.414 57.3182C207.565 56.9091 208.558 56.303 209.391 55.5C210.224 54.6818 210.868 53.6667 211.323 52.4545L216.505 53.9091C215.959 55.6667 215.042 57.2121 213.755 58.5455C212.467 59.8636 210.876 60.8939 208.982 61.6364C207.088 62.3636 204.959 62.7273 202.595 62.7273ZM235.529 62V27.0909H240.893V62H235.529ZM238.256 21.2727C237.211 21.2727 236.309 20.9167 235.552 20.2045C234.809 19.4924 234.438 18.6364 234.438 17.6364C234.438 16.6364 234.809 15.7803 235.552 15.0682C236.309 14.3561 237.211 14 238.256 14C239.302 14 240.196 14.3561 240.938 15.0682C241.696 15.7803 242.075 16.6364 242.075 17.6364C242.075 18.6364 241.696 19.4924 240.938 20.2045C240.196 20.9167 239.302 21.2727 238.256 21.2727ZM252.24 41V62H246.877V27.0909H252.058V32.5455H252.513C253.331 30.7727 254.574 29.3485 256.24 28.2727C257.907 27.1818 260.058 26.6364 262.695 26.6364C265.058 26.6364 267.127 27.1212 268.899 28.0909C270.672 29.0455 272.051 30.5 273.036 32.4545C274.021 34.3939 274.513 36.8485 274.513 39.8182V62H269.149V40.1818C269.149 37.4394 268.437 35.303 267.013 33.7727C265.589 32.2273 263.634 31.4545 261.149 31.4545C259.437 31.4545 257.907 31.8258 256.558 32.5682C255.225 33.3106 254.172 34.3939 253.399 35.8182C252.627 37.2424 252.24 38.9697 252.24 41ZM295.11 62.7273C291.747 62.7273 288.845 61.9848 286.406 60.5C283.982 59 282.11 56.9091 280.792 54.2273C279.489 51.5303 278.838 48.3939 278.838 44.8182C278.838 41.2424 279.489 38.0909 280.792 35.3636C282.11 32.6212 283.944 30.4848 286.292 28.9545C288.656 27.4091 291.413 26.6364 294.565 26.6364C296.383 26.6364 298.179 26.9394 299.951 27.5455C301.724 28.1515 303.338 29.1364 304.792 30.5C306.247 31.8485 307.406 33.6364 308.27 35.8636C309.133 38.0909 309.565 40.8333 309.565 44.0909V46.3636H282.656V41.7273H304.11C304.11 39.7576 303.717 38 302.929 36.4545C302.156 34.9091 301.05 33.6894 299.61 32.7955C298.186 31.9015 296.504 31.4545 294.565 31.4545C292.429 31.4545 290.58 31.9848 289.02 33.0455C287.474 34.0909 286.285 35.4545 285.451 37.1364C284.618 38.8182 284.201 40.6212 284.201 42.5455V45.6364C284.201 48.2727 284.656 50.5076 285.565 52.3409C286.489 54.1591 287.77 55.5455 289.406 56.5C291.042 57.4394 292.944 57.9091 295.11 57.9091C296.52 57.9091 297.792 57.7121 298.929 57.3182C300.08 56.9091 301.073 56.303 301.906 55.5C302.739 54.6818 303.383 53.6667 303.838 52.4545L309.02 53.9091C308.474 55.6667 307.557 57.2121 306.27 58.5455C304.982 59.8636 303.391 60.8939 301.497 61.6364C299.603 62.3636 297.474 62.7273 295.11 62.7273Z" fill="#BA391C"/>
<path d="M498 77.218L486.677 85.201V69.235L498 77.218Z" fill="#BA391C"/>
<path d="M487.143 79.9993L482.144 77.1101L482.142 82.8836L487.143 79.9993ZM222.621 79.8713L222.621 80.3713L482.643 80.4971L482.643 79.9971L482.643 79.4971L222.621 79.3713L222.621 79.8713Z" fill="white"/>
<line x1="223.121" y1="8.25439" x2="223.121" y2="79.8713" stroke="white"/>
<circle cx="223" cy="6" r="4" fill="white"/>
</svg>
