<svg width="601" height="86" viewBox="0 0 601 86" fill="none" xmlns="http://www.w3.org/2000/svg">
<path d="M601 76.5L585 86V67L601 76.5Z" fill="#BA391C"/>
<path d="M4.04545 15.4545H16.1818L29 46.7273H29.5455L42.3636 15.4545H54.5V62H44.9545V31.7045H44.5682L32.5227 61.7727H26.0227L13.9773 31.5909H13.5909V62H4.04545V15.4545ZM68.4034 75.0909C67.1761 75.0909 66.0246 74.9924 64.9489 74.7955C63.8883 74.6136 63.0095 74.3788 62.3125 74.0909L64.4943 66.8636C65.6307 67.2121 66.6534 67.4015 67.5625 67.4318C68.4867 67.4621 69.2822 67.25 69.9489 66.7955C70.6307 66.3409 71.1837 65.5682 71.608 64.4773L72.1761 63L59.6534 27.0909H69.8352L77.0625 52.7273H77.4261L84.7216 27.0909H94.9716L81.4034 65.7727C80.7519 67.6515 79.8655 69.2879 78.7443 70.6818C77.6383 72.0909 76.2367 73.1742 74.5398 73.9318C72.8428 74.7045 70.7973 75.0909 68.4034 75.0909Z" fill="white"/>
<path d="M96.1477 23.5682V15.4545H134.375V23.5682H120.125V62H110.398V23.5682H96.1477ZM140.489 62V27.0909H150.17V62H140.489ZM145.352 22.5909C143.913 22.5909 142.678 22.1136 141.648 21.1591C140.633 20.1894 140.125 19.0303 140.125 17.6818C140.125 16.3485 140.633 15.2045 141.648 14.25C142.678 13.2803 143.913 12.7955 145.352 12.7955C146.792 12.7955 148.019 13.2803 149.034 14.25C150.064 15.2045 150.58 16.3485 150.58 17.6818C150.58 19.0303 150.064 20.1894 149.034 21.1591C148.019 22.1136 146.792 22.5909 145.352 22.5909ZM157.926 62V27.0909H167.153V33.25H167.562C168.29 31.2045 169.502 29.5909 171.199 28.4091C172.896 27.2273 174.926 26.6364 177.29 26.6364C179.684 26.6364 181.722 27.2348 183.403 28.4318C185.085 29.6136 186.206 31.2197 186.767 33.25H187.131C187.843 31.25 189.131 29.6515 190.994 28.4545C192.873 27.2424 195.093 26.6364 197.653 26.6364C200.911 26.6364 203.555 27.6742 205.585 29.75C207.631 31.8106 208.653 34.7348 208.653 38.5227V62H198.994V40.4318C198.994 38.4924 198.479 37.0379 197.449 36.0682C196.419 35.0985 195.131 34.6136 193.585 34.6136C191.828 34.6136 190.456 35.1742 189.472 36.2955C188.487 37.4015 187.994 38.8636 187.994 40.6818V62H178.608V40.2273C178.608 38.5152 178.116 37.1515 177.131 36.1364C176.161 35.1212 174.881 34.6136 173.29 34.6136C172.214 34.6136 171.244 34.8864 170.381 35.4318C169.532 35.9621 168.858 36.7121 168.358 37.6818C167.858 38.6364 167.608 39.7576 167.608 41.0455V62H157.926ZM232.21 62.6818C228.619 62.6818 225.528 61.9545 222.938 60.5C220.362 59.0303 218.377 56.9545 216.983 54.2727C215.589 51.5758 214.892 48.3864 214.892 44.7045C214.892 41.1136 215.589 37.9621 216.983 35.25C218.377 32.5379 220.339 30.4242 222.869 28.9091C225.415 27.3939 228.4 26.6364 231.824 26.6364C234.127 26.6364 236.271 27.0076 238.256 27.75C240.256 28.4773 241.998 29.5758 243.483 31.0455C244.983 32.5152 246.15 34.3636 246.983 36.5909C247.816 38.803 248.233 41.3939 248.233 44.3636V47.0227H218.756V41.0227H239.119C239.119 39.6288 238.816 38.3939 238.21 37.3182C237.604 36.2424 236.763 35.4015 235.688 34.7955C234.627 34.1742 233.392 33.8636 231.983 33.8636C230.513 33.8636 229.21 34.2045 228.074 34.8864C226.953 35.553 226.074 36.4545 225.438 37.5909C224.801 38.7121 224.475 39.9621 224.46 41.3409V47.0455C224.46 48.7727 224.778 50.2652 225.415 51.5227C226.066 52.7803 226.983 53.75 228.165 54.4318C229.347 55.1136 230.748 55.4545 232.369 55.4545C233.445 55.4545 234.43 55.303 235.324 55C236.218 54.697 236.983 54.2424 237.619 53.6364C238.256 53.0303 238.741 52.2879 239.074 51.4091L248.028 52C247.574 54.1515 246.642 56.0303 245.233 57.6364C243.839 59.2273 242.036 60.4697 239.824 61.3636C237.627 62.2424 235.089 62.6818 232.21 62.6818Z" fill="#BA391C"/>
<path d="M257 81V15.0001L265.877 15V71.76L585 71.76V76.38V81H257Z" fill="white"/>
<path d="M257 81V15.0001L265.877 15V71.76L585 71.76V76.38V81H257Z" fill="#BA391C"/>
<path d="M278.864 62V27.0909H288.545V62H278.864ZM283.727 22.5909C282.288 22.5909 281.053 22.1136 280.023 21.1591C279.008 20.1894 278.5 19.0303 278.5 17.6818C278.5 16.3485 279.008 15.2045 280.023 14.25C281.053 13.2803 282.288 12.7955 283.727 12.7955C285.167 12.7955 286.394 13.2803 287.409 14.25C288.439 15.2045 288.955 16.3485 288.955 17.6818C288.955 19.0303 288.439 20.1894 287.409 21.1591C286.394 22.1136 285.167 22.5909 283.727 22.5909ZM305.983 41.8182V62H296.301V27.0909H305.528V33.25H305.938C306.71 31.2197 308.006 29.6136 309.824 28.4318C311.642 27.2348 313.847 26.6364 316.438 26.6364C318.862 26.6364 320.975 27.1667 322.778 28.2273C324.581 29.2879 325.983 30.803 326.983 32.7727C327.983 34.7273 328.483 37.0606 328.483 39.7727V62H318.801V41.5C318.816 39.3636 318.271 37.697 317.165 36.5C316.059 35.2879 314.536 34.6818 312.597 34.6818C311.294 34.6818 310.142 34.9621 309.142 35.5227C308.157 36.0833 307.384 36.9015 306.824 37.9773C306.278 39.0379 305.998 40.3182 305.983 41.8182ZM352.023 62.6818C348.432 62.6818 345.341 61.9545 342.75 60.5C340.174 59.0303 338.189 56.9545 336.795 54.2727C335.402 51.5758 334.705 48.3864 334.705 44.7045C334.705 41.1136 335.402 37.9621 336.795 35.25C338.189 32.5379 340.152 30.4242 342.682 28.9091C345.227 27.3939 348.212 26.6364 351.636 26.6364C353.939 26.6364 356.083 27.0076 358.068 27.75C360.068 28.4773 361.811 29.5758 363.295 31.0455C364.795 32.5152 365.962 34.3636 366.795 36.5909C367.629 38.803 368.045 41.3939 368.045 44.3636V47.0227H338.568V41.0227H358.932C358.932 39.6288 358.629 38.3939 358.023 37.3182C357.417 36.2424 356.576 35.4015 355.5 34.7955C354.439 34.1742 353.205 33.8636 351.795 33.8636C350.326 33.8636 349.023 34.2045 347.886 34.8864C346.765 35.553 345.886 36.4545 345.25 37.5909C344.614 38.7121 344.288 39.9621 344.273 41.3409V47.0455C344.273 48.7727 344.591 50.2652 345.227 51.5227C345.879 52.7803 346.795 53.75 347.977 54.4318C349.159 55.1136 350.561 55.4545 352.182 55.4545C353.258 55.4545 354.242 55.303 355.136 55C356.03 54.697 356.795 54.2424 357.432 53.6364C358.068 53.0303 358.553 52.2879 358.886 51.4091L367.841 52C367.386 54.1515 366.455 56.0303 365.045 57.6364C363.652 59.2273 361.848 60.4697 359.636 61.3636C357.439 62.2424 354.902 62.6818 352.023 62.6818Z" fill="white"/>
<path d="M278.864 62V27.0909H288.545V62H278.864ZM283.727 22.5909C282.288 22.5909 281.053 22.1136 280.023 21.1591C279.008 20.1894 278.5 19.0303 278.5 17.6818C278.5 16.3485 279.008 15.2045 280.023 14.25C281.053 13.2803 282.288 12.7955 283.727 12.7955C285.167 12.7955 286.394 13.2803 287.409 14.25C288.439 15.2045 288.955 16.3485 288.955 17.6818C288.955 19.0303 288.439 20.1894 287.409 21.1591C286.394 22.1136 285.167 22.5909 283.727 22.5909ZM305.983 41.8182V62H296.301V27.0909H305.528V33.25H305.938C306.71 31.2197 308.006 29.6136 309.824 28.4318C311.642 27.2348 313.847 26.6364 316.438 26.6364C318.862 26.6364 320.975 27.1667 322.778 28.2273C324.581 29.2879 325.983 30.803 326.983 32.7727C327.983 34.7273 328.483 37.0606 328.483 39.7727V62H318.801V41.5C318.816 39.3636 318.271 37.697 317.165 36.5C316.059 35.2879 314.536 34.6818 312.597 34.6818C311.294 34.6818 310.142 34.9621 309.142 35.5227C308.157 36.0833 307.384 36.9015 306.824 37.9773C306.278 39.0379 305.998 40.3182 305.983 41.8182ZM352.023 62.6818C348.432 62.6818 345.341 61.9545 342.75 60.5C340.174 59.0303 338.189 56.9545 336.795 54.2727C335.402 51.5758 334.705 48.3864 334.705 44.7045C334.705 41.1136 335.402 37.9621 336.795 35.25C338.189 32.5379 340.152 30.4242 342.682 28.9091C345.227 27.3939 348.212 26.6364 351.636 26.6364C353.939 26.6364 356.083 27.0076 358.068 27.75C360.068 28.4773 361.811 29.5758 363.295 31.0455C364.795 32.5152 365.962 34.3636 366.795 36.5909C367.629 38.803 368.045 41.3939 368.045 44.3636V47.0227H338.568V41.0227H358.932C358.932 39.6288 358.629 38.3939 358.023 37.3182C357.417 36.2424 356.576 35.4015 355.5 34.7955C354.439 34.1742 353.205 33.8636 351.795 33.8636C350.326 33.8636 349.023 34.2045 347.886 34.8864C346.765 35.553 345.886 36.4545 345.25 37.5909C344.614 38.7121 344.288 39.9621 344.273 41.3409V47.0455C344.273 48.7727 344.591 50.2652 345.227 51.5227C345.879 52.7803 346.795 53.75 347.977 54.4318C349.159 55.1136 350.561 55.4545 352.182 55.4545C353.258 55.4545 354.242 55.303 355.136 55C356.03 54.697 356.795 54.2424 357.432 53.6364C358.068 53.0303 358.553 52.2879 358.886 51.4091L367.841 52C367.386 54.1515 366.455 56.0303 365.045 57.6364C363.652 59.2273 361.848 60.4697 359.636 61.3636C357.439 62.2424 354.902 62.6818 352.023 62.6818Z" fill="#BA391C"/>
<path d="M417.318 38.7273C417.318 43.803 416.356 48.1212 414.432 51.6818C412.523 55.2424 409.917 57.9621 406.614 59.8409C403.326 61.7045 399.629 62.6364 395.523 62.6364C391.386 62.6364 387.674 61.697 384.386 59.8182C381.098 57.9394 378.5 55.2197 376.591 51.6591C374.682 48.0985 373.727 43.7879 373.727 38.7273C373.727 33.6515 374.682 29.3333 376.591 25.7727C378.5 22.2121 381.098 19.5 384.386 17.6364C387.674 15.7576 391.386 14.8182 395.523 14.8182C399.629 14.8182 403.326 15.7576 406.614 17.6364C409.917 19.5 412.523 22.2121 414.432 25.7727C416.356 29.3333 417.318 33.6515 417.318 38.7273ZM407.341 38.7273C407.341 35.4394 406.848 32.6667 405.864 30.4091C404.894 28.1515 403.523 26.4394 401.75 25.2727C399.977 24.1061 397.902 23.5227 395.523 23.5227C393.144 23.5227 391.068 24.1061 389.295 25.2727C387.523 26.4394 386.144 28.1515 385.159 30.4091C384.189 32.6667 383.705 35.4394 383.705 38.7273C383.705 42.0152 384.189 44.7879 385.159 47.0455C386.144 49.303 387.523 51.0152 389.295 52.1818C391.068 53.3485 393.144 53.9318 395.523 53.9318C397.902 53.9318 399.977 53.3485 401.75 52.1818C403.523 51.0152 404.894 49.303 405.864 47.0455C406.848 44.7879 407.341 42.0152 407.341 38.7273ZM434.108 41.8182V62H424.426V27.0909H433.653V33.25H434.062C434.835 31.2197 436.131 29.6136 437.949 28.4318C439.767 27.2348 441.972 26.6364 444.562 26.6364C446.987 26.6364 449.1 27.1667 450.903 28.2273C452.706 29.2879 454.108 30.803 455.108 32.7727C456.108 34.7273 456.608 37.0606 456.608 39.7727V62H446.926V41.5C446.941 39.3636 446.396 37.697 445.29 36.5C444.184 35.2879 442.661 34.6818 440.722 34.6818C439.419 34.6818 438.267 34.9621 437.267 35.5227C436.282 36.0833 435.509 36.9015 434.949 37.9773C434.403 39.0379 434.123 40.3182 434.108 41.8182ZM473.92 15.4545V62H464.239V15.4545H473.92ZM481.676 62V27.0909H491.358V62H481.676ZM486.54 22.5909C485.1 22.5909 483.866 22.1136 482.835 21.1591C481.82 20.1894 481.312 19.0303 481.312 17.6818C481.312 16.3485 481.82 15.2045 482.835 14.25C483.866 13.2803 485.1 12.7955 486.54 12.7955C487.979 12.7955 489.206 13.2803 490.222 14.25C491.252 15.2045 491.767 16.3485 491.767 17.6818C491.767 19.0303 491.252 20.1894 490.222 21.1591C489.206 22.1136 487.979 22.5909 486.54 22.5909ZM508.795 41.8182V62H499.114V27.0909H508.341V33.25H508.75C509.523 31.2197 510.818 29.6136 512.636 28.4318C514.455 27.2348 516.659 26.6364 519.25 26.6364C521.674 26.6364 523.788 27.1667 525.591 28.2273C527.394 29.2879 528.795 30.803 529.795 32.7727C530.795 34.7273 531.295 37.0606 531.295 39.7727V62H521.614V41.5C521.629 39.3636 521.083 37.697 519.977 36.5C518.871 35.2879 517.348 34.6818 515.409 34.6818C514.106 34.6818 512.955 34.9621 511.955 35.5227C510.97 36.0833 510.197 36.9015 509.636 37.9773C509.091 39.0379 508.811 40.3182 508.795 41.8182ZM554.835 62.6818C551.244 62.6818 548.153 61.9545 545.562 60.5C542.987 59.0303 541.002 56.9545 539.608 54.2727C538.214 51.5758 537.517 48.3864 537.517 44.7045C537.517 41.1136 538.214 37.9621 539.608 35.25C541.002 32.5379 542.964 30.4242 545.494 28.9091C548.04 27.3939 551.025 26.6364 554.449 26.6364C556.752 26.6364 558.896 27.0076 560.881 27.75C562.881 28.4773 564.623 29.5758 566.108 31.0455C567.608 32.5152 568.775 34.3636 569.608 36.5909C570.441 38.803 570.858 41.3939 570.858 44.3636V47.0227H541.381V41.0227H561.744C561.744 39.6288 561.441 38.3939 560.835 37.3182C560.229 36.2424 559.388 35.4015 558.312 34.7955C557.252 34.1742 556.017 33.8636 554.608 33.8636C553.138 33.8636 551.835 34.2045 550.699 34.8864C549.578 35.553 548.699 36.4545 548.062 37.5909C547.426 38.7121 547.1 39.9621 547.085 41.3409V47.0455C547.085 48.7727 547.403 50.2652 548.04 51.5227C548.691 52.7803 549.608 53.75 550.79 54.4318C551.972 55.1136 553.373 55.4545 554.994 55.4545C556.07 55.4545 557.055 55.303 557.949 55C558.843 54.697 559.608 54.2424 560.244 53.6364C560.881 53.0303 561.366 52.2879 561.699 51.4091L570.653 52C570.199 54.1515 569.267 56.0303 567.858 57.6364C566.464 59.2273 564.661 60.4697 562.449 61.3636C560.252 62.2424 557.714 62.6818 554.835 62.6818Z" fill="white"/>
</svg>
